<svg width="1093" height="478" viewBox="0 0 1093 478" fill="none" xmlns="http://www.w3.org/2000/svg">
<g clip-path="url(#clip0_6_67)">
<rect width="1093" height="478" fill="white"/>
<path d="M291.38 380.376H107.776L101.718 348.688L214.49 215.412H151.58L142.26 247.566L98.922 243.838L106.378 170.21H290.914L295.574 201.898L179.54 335.174H247.11L256.896 302.088L304.428 306.748L291.38 380.376ZM538.156 314.204C536.603 332.844 527.438 349.31 510.662 363.6C493.886 377.891 470.431 385.036 440.296 385.036C408.919 385.036 382.978 376.182 362.474 358.474C342.281 340.766 332.184 314.36 332.184 279.254C332.184 246.945 341.349 220.072 359.678 198.636C378.318 176.89 404.259 166.016 437.5 166.016C466.703 166.016 490.313 174.404 508.332 191.18C526.661 207.956 535.981 230.014 536.292 257.352C536.292 267.604 535.205 277.701 533.03 287.642H395.094C398.511 320.884 414.977 337.504 444.49 337.504C460.645 337.504 471.518 333.621 477.11 325.854C483.013 318.088 486.585 311.098 487.828 304.884L538.156 314.204ZM474.314 252.692C475.557 242.13 473.227 232.188 467.324 222.868C461.732 213.548 451.791 208.888 437.5 208.888C425.073 208.888 415.443 212.927 408.608 221.004C401.773 229.082 397.424 239.644 395.56 252.692H474.314ZM808.156 380.376H700.51V335.174H720.082L683.734 293.7H652.512V335.174H671.618V380.376H564.438V335.174H592.398V105.436H562.108V59.7682H652.512V251.294H687.462L718.218 215.878H693.054V170.21H798.37V215.878H775.536L730.334 267.138L789.982 335.174H808.156V380.376ZM1037.36 314.204C1035.81 332.844 1026.64 349.31 1009.86 363.6C993.089 377.891 969.633 385.036 939.499 385.036C908.121 385.036 882.181 376.182 861.677 358.474C841.483 340.766 831.387 314.36 831.387 279.254C831.387 246.945 840.551 220.072 858.881 198.636C877.521 176.89 903.461 166.016 936.703 166.016C965.905 166.016 989.516 174.404 1007.53 191.18C1025.86 207.956 1035.18 230.014 1035.49 257.352C1035.49 267.604 1034.41 277.701 1032.23 287.642H894.297C897.714 320.884 914.179 337.504 943.693 337.504C959.847 337.504 970.721 333.621 976.313 325.854C982.215 318.088 985.788 311.098 987.031 304.884L1037.36 314.204ZM973.517 252.692C974.759 242.13 972.429 232.188 966.527 222.868C960.935 213.548 950.993 208.888 936.703 208.888C924.276 208.888 914.645 212.927 907.811 221.004C900.976 229.082 896.627 239.644 894.763 252.692H973.517Z" fill="black"/>
</g>
<defs>
<clipPath id="clip0_6_67">
<rect width="1093" height="478" fill="white"/>
</clipPath>
</defs>
</svg>
